<svg xmlns="http://www.w3.org/2000/svg" viewBox="0 0 48 48" width="48" height="48">
  <!-- corpo -->
  <path d="M26 13 C15 13 11 22 13 30 C14.5 37 21 41 27.5 38.5 C34 36 35 29 32.5 23 C31 19 30.5 15 26 13 Z" fill="#15151a"/>
  <!-- bico superior -->
  <path d="M25.5 15 C36 10.5 47 15 44.5 19.5 C42 23 32.5 21.5 27.5 24 C24.5 21.5 23.5 17.5 25.5 15 Z" fill="#ff8c1a"/>
  <!-- bico inferior -->
  <path d="M27.5 24 C33 22.5 41.5 22.5 44 20.5 C43 25 34.5 27.5 29 26.5 Z" fill="#ffd11a"/>
  <!-- olho -->
  <circle cx="23.5" cy="20" r="2.4" fill="#ffffff"/>
  <circle cx="23.5" cy="20" r="1.2" fill="#000000"/>
</svg>
